<?xml version="1.0" encoding="UTF-8"?>
<!DOCTYPE svg PUBLIC "-//W3C//DTD SVG 1.1//EN" "http://www.w3.org/Graphics/SVG/1.1/DTD/svg11.dtd">
<svg xmlns="http://www.w3.org/2000/svg" version="1.1" width="193" height="51" style="shape-rendering:geometricPrecision; text-rendering:geometricPrecision; image-rendering:optimizeQuality; fill-rule:evenodd; clip-rule:evenodd" xmlns:xlink="http://www.w3.org/1999/xlink">
<g><path style="opacity:1" fill="#fbfbfa" d="M -0.5,-0.5 C 109.5,-0.5 219.5,-0.5 329.5,-0.5C 329.5,15.8333 329.5,32.1667 329.5,48.5C 219.5,48.5 109.5,48.5 -0.5,48.5C -0.5,32.1667 -0.5,15.8333 -0.5,-0.5 Z"/></g>
<g><path style="opacity:1" fill="#b8d785" d="M 20.5,24.5 C 18.8333,24.5 17.1667,24.5 15.5,24.5C 15.5,23.1667 15.5,21.8333 15.5,20.5C 14.1667,20.5 12.8333,20.5 11.5,20.5C 11.5,18.8333 11.5,17.1667 11.5,15.5C 14.5,15.5 17.5,15.5 20.5,15.5C 20.5,18.5 20.5,21.5 20.5,24.5 Z"/></g>
<g><path style="opacity:1" fill="#482728" d="M 82.5,18.5 C 83.8117,20.7432 84.4783,23.4098 84.5,26.5C 84.1667,29.1667 83.8333,31.8333 83.5,34.5C 82.5052,29.2079 82.1718,23.8746 82.5,18.5 Z"/></g>
<g><path style="opacity:1" fill="#303e5b" d="M 96.5,18.5 C 98.1644,19.9488 98.9977,21.9488 99,24.5C 101.267,23.0652 103.267,23.3985 105,25.5C 105.821,28.5541 105.655,31.5541 104.5,34.5C 103.682,31.8929 103.182,29.2263 103,26.5C 101.667,25.1667 100.333,25.1667 99,26.5C 98.8184,29.2263 98.3184,31.8929 97.5,34.5C 96.5052,29.2079 96.1718,23.8746 96.5,18.5 Z"/></g>
<g><path style="opacity:1" fill="#25244a" d="M 262.5,25.5 C 261.916,28.4726 261.249,31.4726 260.5,34.5C 259.167,29.1667 259.167,23.8333 260.5,18.5C 261.168,20.9688 261.835,23.3021 262.5,25.5 Z"/></g>
<g><path style="opacity:1" fill="#462c33" d="M 45.5,19.5 C 47.3079,20.9179 47.9746,22.9179 47.5,25.5C 49.8333,25.5 52.1667,25.5 54.5,25.5C 54.2011,23.396 54.5344,21.396 55.5,19.5C 56.8333,24.5 56.8333,29.5 55.5,34.5C 54.5258,32.2573 54.1924,29.924 54.5,27.5C 52.1667,27.5 49.8333,27.5 47.5,27.5C 47.8076,29.924 47.4742,32.2573 46.5,34.5C 45.5059,29.544 45.1725,24.544 45.5,19.5 Z"/></g>
<g><path style="opacity:1" fill="#3b2835" d="M 156.5,19.5 C 163.493,17.9959 166.327,20.6625 165,27.5C 163.103,29.0163 160.936,29.683 158.5,29.5C 158.785,31.288 158.452,32.9547 157.5,34.5C 156.506,29.544 156.173,24.544 156.5,19.5 Z"/></g>
<g><path style="opacity:1" fill="#4f343e" d="M 188.5,19.5 C 190.337,19.6395 190.67,20.3061 189.5,21.5C 188.702,21.0431 188.369,20.3764 188.5,19.5 Z"/></g>
<g><path style="opacity:1" fill="#444171" d="M 246.5,19.5 C 248.337,19.6395 248.67,20.3061 247.5,21.5C 246.702,21.0431 246.369,20.3764 246.5,19.5 Z"/></g>
<g><path style="opacity:1" fill="#323454" d="M 309.5,26.5 C 309.5,24.8333 309.5,23.1667 309.5,21.5C 309.846,19.2951 310.513,19.1284 311.5,21C 311.046,23.0299 310.38,24.8632 309.5,26.5 Z"/></g>
<g><path style="opacity:1" fill="#4f3839" d="M 89.5,20.5 C 90.404,21.209 90.7373,22.209 90.5,23.5C 94.5,24.1667 94.5,24.8333 90.5,25.5C 90.5,27.8333 90.5,30.1667 90.5,32.5C 91.675,32.281 92.675,32.6143 93.5,33.5C 92.2243,34.6446 90.891,34.6446 89.5,33.5C 88.7518,30.5027 88.0851,27.5027 87.5,24.5C 88.1799,23.1401 88.8466,21.8068 89.5,20.5 Z"/></g>
<g><path style="opacity:1" fill="#f2f6f0" d="M 158.5,21.5 C 163.159,21.0146 164.492,22.848 162.5,27C 161.207,27.49 159.873,27.6567 158.5,27.5C 158.5,25.5 158.5,23.5 158.5,21.5 Z"/></g>
<g><path style="opacity:1" fill="#30374e" d="M 129.5,23.5 C 131.225,24.278 132.891,24.6114 134.5,24.5C 133.758,25.2868 132.925,25.9535 132,26.5C 131.818,29.2263 131.318,31.8929 130.5,34.5C 129.511,30.8927 129.177,27.226 129.5,23.5 Z"/></g>
<g><path style="opacity:1" fill="#3a262e" d="M 168.5,23.5 C 170.585,24.3503 172.585,24.6837 174.5,24.5C 173.372,25.2621 172.205,25.9288 171,26.5C 170.818,29.2263 170.318,31.8929 169.5,34.5C 168.511,30.8927 168.177,27.226 168.5,23.5 Z"/></g>
<g><path style="opacity:1" fill="#4d3739" d="M 216.5,20.5 C 217.404,21.209 217.737,22.209 217.5,23.5C 221.5,24.1667 221.5,24.8333 217.5,25.5C 217.5,27.8333 217.5,30.1667 217.5,32.5C 218.675,32.281 219.675,32.6143 220.5,33.5C 219.224,34.6446 217.891,34.6446 216.5,33.5C 215.752,30.5027 215.085,27.5027 214.5,24.5C 215.18,23.1401 215.847,21.8068 216.5,20.5 Z"/></g>
<g><path style="opacity:1" fill="#262365" d="M 246.5,23.5 C 247.787,24.8714 248.453,26.7047 248.5,29C 248.167,30.8333 247.833,32.6667 247.5,34.5C 246.511,30.8927 246.177,27.226 246.5,23.5 Z"/></g>
<g><path style="opacity:1" fill="#382a43" d="M 253.5,20.5 C 254.306,21.8675 255.306,23.2008 256.5,24.5C 253.833,27.5 253.833,30.5 256.5,33.5C 255.349,34.731 254.183,34.731 253,33.5C 252.936,30.2369 252.102,27.2369 250.5,24.5C 251.91,23.4305 252.91,22.0972 253.5,20.5 Z"/></g>
<g><path style="opacity:1" fill="#704f37" d="M 309.5,21.5 C 309.5,23.1667 309.5,24.8333 309.5,26.5C 308.699,28.0418 308.366,29.7085 308.5,31.5C 306.952,31.1788 306.285,30.1788 306.5,28.5C 307.323,26.0128 308.323,23.6794 309.5,21.5 Z"/></g>
<g><path style="opacity:1" fill="#333144" d="M 62.5,23.5 C 66.8514,22.533 69.1847,24.1996 69.5,28.5C 67.1667,28.5 64.8333,28.5 62.5,28.5C 62.33,29.8221 62.6634,30.9887 63.5,32C 65.1667,32.3333 66.8333,32.6667 68.5,33C 61.6273,35.4649 59.1273,32.9649 61,25.5C 61.7172,24.9558 62.2172,24.2891 62.5,23.5 Z"/></g>
<g><path style="opacity:1" fill="#f3eae0" d="M 62.5,25.5 C 64.288,25.2148 65.9547,25.5481 67.5,26.5C 66.6667,26.8333 65.8333,27.1667 65,27.5C 63.6244,27.3158 62.7911,26.6491 62.5,25.5 Z"/></g>
<g><path style="opacity:1" fill="#333144" d="M 138.5,23.5 C 142.851,22.533 145.185,24.1996 145.5,28.5C 143.167,28.5 140.833,28.5 138.5,28.5C 138.33,29.8221 138.663,30.9887 139.5,32C 141.167,32.3333 142.833,32.6667 144.5,33C 137.627,35.4649 135.127,32.9649 137,25.5C 137.717,24.9558 138.217,24.2891 138.5,23.5 Z"/></g>
<g><path style="opacity:1" fill="#f3eae0" d="M 138.5,25.5 C 140.288,25.2148 141.955,25.5481 143.5,26.5C 142.667,26.8333 141.833,27.1667 141,27.5C 139.624,27.3158 138.791,26.6491 138.5,25.5 Z"/></g>
<g><path style="opacity:1" fill="#d89d6a" d="M 242.5,23.5 C 241.781,25.7638 241.448,28.0971 241.5,30.5C 241.167,30.5 240.833,30.5 240.5,30.5C 240.338,28.4727 240.505,26.4727 241,24.5C 241.383,23.944 241.883,23.6107 242.5,23.5 Z"/></g>
<g><path style="opacity:1" fill="#2f344a" d="M 262.5,25.5 C 264.198,22.8761 266.031,22.8761 268,25.5C 268.821,28.5541 268.655,31.5541 267.5,34.5C 266.682,31.8929 266.182,29.2263 266,26.5C 264.989,25.6634 263.822,25.33 262.5,25.5 Z"/></g>
<g><path style="opacity:1" fill="#40343a" d="M 73.5,23.5 C 75.4672,23.2606 77.3005,23.5939 79,24.5C 79.8236,27.8823 79.657,31.2156 78.5,34.5C 76.3984,34.5207 74.2317,34.1874 72,33.5C 71.302,29.3491 73.1354,27.0157 77.5,26.5C 75.9223,25.7022 74.2556,25.2022 72.5,25C 73.056,24.6174 73.3893,24.1174 73.5,23.5 Z"/></g>
<g><path style="opacity:1" fill="#40343a" d="M 119.5,23.5 C 121.467,23.2606 123.301,23.5939 125,24.5C 125.824,27.8823 125.657,31.2156 124.5,34.5C 122.398,34.5207 120.232,34.1874 118,33.5C 117.302,29.3491 119.135,27.0157 123.5,26.5C 121.922,25.7022 120.256,25.2022 118.5,25C 119.056,24.6174 119.389,24.1174 119.5,23.5 Z"/></g>
<g><path style="opacity:1" fill="#3e2e33" d="M 178.5,23.5 C 185.265,23.4641 187.265,26.6308 184.5,33C 179.394,35.729 176.394,34.229 175.5,28.5C 175.771,26.3074 176.771,24.6407 178.5,23.5 Z"/></g>
<g><path style="opacity:1" fill="#ecf0f3" d="M 178.5,25.5 C 180.167,25.5 181.833,25.5 183.5,25.5C 183.662,27.5273 183.495,29.5273 183,31.5C 177.651,32.8948 176.151,30.8948 178.5,25.5 Z"/></g>
<g><path style="opacity:1" fill="#3a2c31" d="M 202.5,26.5 C 200.721,28.3435 198.388,29.0102 195.5,28.5C 195.263,29.791 195.596,30.791 196.5,31.5C 197.952,32.3019 199.618,32.8019 201.5,33C 198.568,35.1454 196.068,34.6454 194,31.5C 192.803,27.2284 194.303,24.5617 198.5,23.5C 200.417,23.7538 201.751,24.7538 202.5,26.5 Z"/></g>
<g><path style="opacity:1" fill="#edeae6" d="M 196.5,25.5 C 198.429,25.2308 200.095,25.7308 201.5,27C 199.5,27.6667 197.5,27.6667 195.5,27C 196.056,26.6174 196.389,26.1174 196.5,25.5 Z"/></g>
<g><path style="opacity:1" fill="#463043" d="M 235.5,26.5 C 235.167,29.1667 234.833,31.8333 234.5,34.5C 233.5,34.5 232.5,34.5 231.5,34.5C 231.469,31.0412 230.802,27.7079 229.5,24.5C 229.833,24.1667 230.167,23.8333 230.5,23.5C 231.396,26.1436 232.229,28.8103 233,31.5C 233.374,29.5087 234.207,27.842 235.5,26.5 Z"/></g>
<g><path style="opacity:1" fill="#3d4066" d="M 240.5,30.5 C 240.833,30.5 241.167,30.5 241.5,30.5C 241.5,31.8333 241.5,33.1667 241.5,34.5C 240.209,34.7373 239.209,34.404 238.5,33.5C 238.59,30.8478 237.924,28.5145 236.5,26.5C 236.167,26.5 235.833,26.5 235.5,26.5C 235.5,25.5 235.5,24.5 235.5,23.5C 236.5,23.5 237.5,23.5 238.5,23.5C 238.517,26.719 239.184,29.0523 240.5,30.5 Z"/></g>
<g><path style="opacity:1" fill="#324070" d="M 242.5,23.5 C 243.645,25.9533 243.312,28.2866 241.5,30.5C 241.448,28.0971 241.781,25.7638 242.5,23.5 Z"/></g>
<g><path style="opacity:1" fill="#38303e" d="M 315.5,19.5 C 317.604,19.2011 319.604,19.5344 321.5,20.5C 319.149,21.0118 317.149,22.0118 315.5,23.5C 317.538,25.2764 319.704,26.9431 322,28.5C 323.033,31.2175 322.2,33.0508 319.5,34C 317.421,34.8077 315.421,34.641 313.5,33.5C 316.184,33.0245 318.517,32.0245 320.5,30.5C 318.462,28.7236 316.296,27.0569 314,25.5C 313.252,23.1599 313.752,21.1599 315.5,19.5 Z"/></g>
<g><path style="opacity:1" fill="#393041" d="M 283.5,19.5 C 284.833,19.5 286.167,19.5 287.5,19.5C 288.426,23.9468 289.76,28.2801 291.5,32.5C 291.167,33.1667 290.833,33.8333 290.5,34.5C 289.738,33.3717 289.071,32.2051 288.5,31C 286.19,30.5034 283.857,30.3367 281.5,30.5C 281.762,31.9778 281.429,33.3112 280.5,34.5C 280.167,34.1667 279.833,33.8333 279.5,33.5C 280.85,28.8107 282.183,24.144 283.5,19.5 Z"/></g>
<g><path style="opacity:1" fill="#dff1f9" d="M 285.5,22.5 C 285.517,24.5648 285.85,26.5648 286.5,28.5C 285.5,28.5 284.5,28.5 283.5,28.5C 283.651,25.6278 284.318,23.6278 285.5,22.5 Z"/></g>
<g><path style="opacity:1" fill="#edc591" d="M 285.5,22.5 C 287.461,24.32 287.794,26.32 286.5,28.5C 285.85,26.5648 285.517,24.5648 285.5,22.5 Z"/></g>
<g><path style="opacity:1" fill="#e4af74" d="M 293.5,24.5 C 294.924,26.5145 295.59,28.8478 295.5,31.5C 294.076,29.4855 293.41,27.1522 293.5,24.5 Z"/></g>
<g><path style="opacity:1" fill="#b6d681" d="M 29.5,37.5 C 29.5,35.8333 29.5,34.1667 29.5,32.5C 27.8333,32.5 26.1667,32.5 24.5,32.5C 24.5,31.5 24.5,30.5 24.5,29.5C 23.1667,29.5 21.8333,29.5 20.5,29.5C 20.5,30.5 20.5,31.5 20.5,32.5C 18.8333,32.5 17.1667,32.5 15.5,32.5C 15.5,34.1667 15.5,35.8333 15.5,37.5C 14.1667,37.5 12.8333,37.5 11.5,37.5C 11.5,34.5 11.5,31.5 11.5,28.5C 14.5,28.5 17.5,28.5 20.5,28.5C 20.5,27.1667 20.5,25.8333 20.5,24.5C 21.8333,24.5 23.1667,24.5 24.5,24.5C 24.5,21.5 24.5,18.5 24.5,15.5C 27.5,15.5 30.5,15.5 33.5,15.5C 33.5,17.1667 33.5,18.8333 33.5,20.5C 32.1667,20.5 30.8333,20.5 29.5,20.5C 29.5,21.8333 29.5,23.1667 29.5,24.5C 28.1667,24.5 26.8333,24.5 25.5,24.5C 25.5,25.8333 25.5,27.1667 25.5,28.5C 28.1667,28.5 30.8333,28.5 33.5,28.5C 33.5,31.5 33.5,34.5 33.5,37.5C 32.1667,37.5 30.8333,37.5 29.5,37.5 Z"/></g>
<g><path style="opacity:1" fill="#543f41" d="M 147.5,27.5 C 149.288,27.2148 150.955,27.5481 152.5,28.5C 151.667,28.8333 150.833,29.1667 150,29.5C 148.624,29.3158 147.791,28.6491 147.5,27.5 Z"/></g>
<g><path style="opacity:1" fill="#8f94ab" d="M 202.5,26.5 C 203.404,27.209 203.737,28.209 203.5,29.5C 200.612,28.9898 198.279,29.6565 196.5,31.5C 195.596,30.791 195.263,29.791 195.5,28.5C 198.388,29.0102 200.721,28.3435 202.5,26.5 Z"/></g>
<g><path style="opacity:1" fill="#5e4f4c" d="M 221.5,27.5 C 223.604,27.2011 225.604,27.5344 227.5,28.5C 226.5,28.8333 225.5,29.1667 224.5,29.5C 222.97,29.3601 221.97,28.6935 221.5,27.5 Z"/></g>
<g><path style="opacity:1" fill="#4c3d41" d="M 271.5,27.5 C 273.288,27.2148 274.955,27.5481 276.5,28.5C 275.667,28.8333 274.833,29.1667 274,29.5C 272.624,29.3158 271.791,28.6491 271.5,27.5 Z"/></g>
<g><path style="opacity:1" fill="#eff0e8" d="M 73.5,29.5 C 74.8333,29.5 76.1667,29.5 77.5,29.5C 77.5,30.5 77.5,31.5 77.5,32.5C 76.1667,32.5 74.8333,32.5 73.5,32.5C 73.5,31.5 73.5,30.5 73.5,29.5 Z"/></g>
<g><path style="opacity:1" fill="#eff0e8" d="M 119.5,29.5 C 120.833,29.5 122.167,29.5 123.5,29.5C 123.5,30.5 123.5,31.5 123.5,32.5C 122.167,32.5 120.833,32.5 119.5,32.5C 119.5,31.5 119.5,30.5 119.5,29.5 Z"/></g>
<g><path style="opacity:1" fill="#2f324d" d="M 306.5,28.5 C 306.285,30.1788 306.952,31.1788 308.5,31.5C 308.5,32.5 308.5,33.5 308.5,34.5C 307.5,34.5 306.5,34.5 305.5,34.5C 303.476,19.8703 301.476,19.8703 299.5,34.5C 298.5,34.5 297.5,34.5 296.5,34.5C 296.737,33.209 296.404,32.209 295.5,31.5C 295.59,28.8478 294.924,26.5145 293.5,24.5C 293.714,22.8561 293.38,21.3561 292.5,20C 293.448,19.5172 294.448,19.3505 295.5,19.5C 295.798,23.6225 296.631,27.6225 298,31.5C 298.943,27.2633 300.443,23.2633 302.5,19.5C 304.284,22.3052 305.617,25.3052 306.5,28.5 Z"/></g>
<g><path style="opacity:1" fill="#d3e3b8" d="M 29.5,37.5 C 28.5655,36.4324 28.2322,35.099 28.5,33.5C 27.5,33.5 26.5,33.5 25.5,33.5C 25.7678,35.099 25.4345,36.4324 24.5,37.5C 24.5,36.1667 24.5,34.8333 24.5,33.5C 23.1667,33.5 21.8333,33.5 20.5,33.5C 20.5,34.8333 20.5,36.1667 20.5,37.5C 19.5655,36.4324 19.2322,35.099 19.5,33.5C 18.5,33.5 17.5,33.5 16.5,33.5C 16.7678,35.099 16.4345,36.4324 15.5,37.5C 15.5,35.8333 15.5,34.1667 15.5,32.5C 17.1667,32.5 18.8333,32.5 20.5,32.5C 20.5,31.5 20.5,30.5 20.5,29.5C 21.8333,29.5 23.1667,29.5 24.5,29.5C 24.5,30.5 24.5,31.5 24.5,32.5C 26.1667,32.5 27.8333,32.5 29.5,32.5C 29.5,34.1667 29.5,35.8333 29.5,37.5 Z"/></g>
<g><path style="opacity:1" fill="#412f36" d="M 110.5,23.5 C 117.035,23.9253 117.035,24.9253 110.5,26.5C 108.471,31.317 110.138,33.4837 115.5,33C 110.923,35.2955 108.256,33.7955 107.5,28.5C 107.771,26.3074 108.771,24.6407 110.5,23.5 Z"/></g>
<g><path style="opacity:1" fill="#3b3642" d="M 207.5,23.5 C 213.882,23.7718 214.048,24.7718 208,26.5C 206.487,30.7712 207.987,33.1046 212.5,33.5C 206.032,34.8465 203.866,32.1799 206,25.5C 206.717,24.9558 207.217,24.2891 207.5,23.5 Z"/></g>
<g><path style="opacity:1" fill="#e1a869" d="M 236.5,26.5 C 237.924,28.5145 238.59,30.8478 238.5,33.5C 237.076,31.4855 236.41,29.1522 236.5,26.5 Z"/></g>
<g><path style="opacity:1" fill="#b0d375" d="M 24.5,37.5 C 23.1667,37.5 21.8333,37.5 20.5,37.5C 20.5,36.1667 20.5,34.8333 20.5,33.5C 21.8333,33.5 23.1667,33.5 24.5,33.5C 24.5,34.8333 24.5,36.1667 24.5,37.5 Z"/></g>
<g><path style="opacity:1" fill="#4b2a31" d="M 188.5,23.5 C 189.805,25.3972 190.471,27.7305 190.5,30.5C 190.333,32.8333 190.167,35.1667 190,37.5C 188.759,39.4206 187.259,39.754 185.5,38.5C 186.325,37.6143 187.325,37.281 188.5,37.5C 188.5,32.8333 188.5,28.1667 188.5,23.5 Z"/></g>
</svg>
